<?xml version="1.0" encoding="UTF-8"?>
<svg id="Layer_2" data-name="Layer 2" xmlns="http://www.w3.org/2000/svg" viewBox="0 0 2620.8 1787.68">
  <defs>
    <style>
      .cls-1 {
        fill: #604242;
      }

      .cls-2 {
        fill: #965fff;
      }

      .cls-3 {
        fill: #fff3f3;
        opacity: .2;
      }

      .cls-4 {
        fill: #161414;
      }

      .cls-5 {
        stroke: #eae4e4;
        stroke-miterlimit: 10;
        stroke-width: 13px;
      }

      .cls-5, .cls-6 {
        fill: #eae4e4;
      }
    </style>
  </defs>
  <g id="Layer_1-2" data-name="Layer 1">
    <path class="cls-6" d="M1986.6,480.65c0,84.48-8.96,166.51-25.83,244.84-14.61,67.87-74.95,116.13-144.37,116.13h-455.84c-133.32,0-241.39,108.07-241.39,241.39v271.86c0,70.92-64.95,124.42-134.44,110.25-77.17-15.74-150.8-43.61-219.4-81.88-53.93-30.03-104.73-66.51-151.66-108.59-47.34-42.39-90.82-90.46-129.58-143.34-27.76-37.85-53.16-78.15-75.92-120.58-42.44-79.28-75.65-165.97-97.86-258.11-1.82-7.59-3.59-15.22-5.27-22.9-10.09-45.93-17.45-93.14-21.85-141.35-.5-5.27-.95-10.54-1.36-15.86-2.32-30.26-3.54-60.88-3.54-91.87,0-14.08.23-28.08.77-41.98.18-5.91.41-11.81.73-17.67,0-.23,0-.41.05-.64,2.77-55.29,22.17-108.81,56.52-152.25C460.52,111.18,770.11,0,1132.45,0s671.92,111.18,796.09,268.11c34.35,43.44,53.75,96.96,56.52,152.25.05.23.05.41.05.64.32,5.86.55,11.77.73,17.67.54,13.9.77,27.9.77,41.98Z"/>
    <path class="cls-1" d="M1831.77,440.4c0,4.2-.19,8.41-.63,12.58-15.41,159.64-323.23,287.02-700.73,287.02s-685.32-127.38-700.73-287.02c-.45-4.17-.63-8.37-.63-12.58,0-10.44,1.23-20.72,3.69-30.87,36.19-150.94,334.72-268.69,697.67-268.69s661.49,117.74,697.67,268.69c2.46,10.15,3.69,20.43,3.69,30.87Z"/>
    <path class="cls-5" d="M550.07,1092.81c-57.7,57.61-137.26,93.28-224.99,93.28-175.65,0-318.58-142.89-318.58-318.54s127.37-308.66,303.02-308.66c8.09,0,8.2,9.55,16.15,10.1,4.41,48.21,35.26,76.3,45.34,122.24-14.68-3.86-30.08-5.91-45.93-5.91-100.5,0-182.28,81.74-182.28,182.24s81.78,182.24,182.28,182.24c61.52,0,116.04-30.67,149.07-77.56,22.76,42.44,48.16,82.74,75.92,120.58Z"/>
    <path class="cls-4" d="M2620.8,1083.04v583.6c0,66.83-54.2,121.04-121.04,121.04h-569.56v-825.67h569.56c66.83,0,121.04,54.2,121.04,121.04Z"/>
    <path class="cls-2" d="M1930.2,962.01v825.67h-569.61c-66.83,0-120.99-54.2-120.99-121.04v-583.6c0-66.83,54.16-121.04,120.99-121.04h569.61Z"/>
    <rect class="cls-6" x="2016.22" y="1055.47" width="241.66" height="41.39" rx="20.7" ry="20.7"/>
    <rect class="cls-3" x="2058.57" y="1150.53" width="422.76" height="20.7" rx="10.35" ry="10.35"/>
    <rect class="cls-3" x="2058.57" y="1116.41" width="279.99" height="20.7" rx="10.35" ry="10.35"/>
    <rect class="cls-3" x="2347.76" y="1116.41" width="133.57" height="20.7" rx="10.35" ry="10.35"/>
    <rect class="cls-6" x="2015.07" y="1224.88" width="292.83" height="41.39" rx="20.7" ry="20.7"/>
    <rect class="cls-3" x="2057.42" y="1285.83" width="422.76" height="20.7" rx="10.35" ry="10.35"/>
    <rect class="cls-3" x="2057.42" y="1319.94" width="208.12" height="20.7" rx="10.35" ry="10.35"/>
    <rect class="cls-3" x="2275.32" y="1319.94" width="204.87" height="20.7" rx="10.35" ry="10.35"/>
    <rect class="cls-6" x="2016.22" y="1396.21" width="401.49" height="41.39" rx="20.7" ry="20.7"/>
    <rect class="cls-3" x="2058.57" y="1491.27" width="422.76" height="20.7" rx="10.35" ry="10.35"/>
    <rect class="cls-3" x="2058.57" y="1457.15" width="110.96" height="20.7" rx="10.35" ry="10.35"/>
    <rect class="cls-3" x="2176.43" y="1457.15" width="304.9" height="20.7" rx="10.35" ry="10.35"/>
    <rect class="cls-6" x="2016.22" y="1578.46" width="292.83" height="41.39" rx="20.7" ry="20.7"/>
    <rect class="cls-3" x="2058.57" y="1639.41" width="422.76" height="20.7" rx="10.35" ry="10.35"/>
    <rect class="cls-3" x="2058.57" y="1673.52" width="208.12" height="20.7" rx="10.35" ry="10.35"/>
    <rect class="cls-3" x="2276.47" y="1673.52" width="204.87" height="20.7" rx="10.35" ry="10.35"/>
  </g>
</svg>